<?xml version="1.0" encoding="UTF-8"?>
<svg id="Layer_1" xmlns="http://www.w3.org/2000/svg" version="1.1" viewBox="0 0 921.26 668.54">
  <!-- Generator: Adobe Illustrator 30.3.0, SVG Export Plug-In . SVG Version: 2.1.3 Build 182)  -->
  <path d="M747.73,157.11C680.79,52.44,561.13-7.49,436.54.75c-102.52,6.78-196.96,59.42-256.19,142.72-81.93,115.23-81.26,269.43,1.72,383.99,60.05,82.9,155.36,135.08,258.91,140.6,120.14,6.4,234.51-50.28,301.51-148.7,74.12-108.9,76.17-251.33,5.24-362.24ZM704.05,497.22c-46.94,67.3-120.23,112.5-202.63,124.13-97.81,13.8-195.51-21.52-261.33-92.65-95.3-102.99-102.31-259.06-16.12-369.84,58.74-75.49,151.13-118.23,247.78-114.32,89.88,3.63,173.48,47.53,226.95,119.29,73.25,98.31,75.59,232.71,5.36,333.39Z"/>
  <path d="M109.43,143.04c15.65-27.22,33.41-52.35,54.31-75.32l-39.99-39.31c-50.27,55.55-87.03,121.17-107.72,192.3-43.63,154.95,5.11,297.79,106.51,417.64l42.65-36.16c-39.15-46.37-70.38-96.27-89.95-152.39-36.46-104.52-20.18-211.73,34.19-306.75Z"/>
  <path d="M797.57,28.41l-39.89,39.31c42.68,47.89,74.24,103.75,92.7,164.56,28,95.31,16.8,187.3-29.2,274.64-18.02,34.29-39.92,65.46-65.11,95.36l42.71,36.04c23.53-27.82,44.09-56.61,62.09-87.89,58.07-101.18,76.52-212.07,45.47-325.71-20.35-72.66-57.6-139.66-108.77-196.31Z"/>
  <path d="M510.29,298.07c20.9-6.72,35.13-24.08,36.58-45.72,1.15-17.05-7.01-31.91-21.07-41.34-10.42-7.03-22.28-10.62-35.27-11.85-23.42-2.2-47.1-.89-69.84,3.55l-.34,209.07c31.46,3.53,67.14,5.2,96.33-5.27,23.8-8.54,39.29-30.54,38.07-56.78-1.21-25.98-19.3-46.16-44.45-51.66ZM448.23,221.32c16.76-2.28,36.78-3.41,52.4,2.98,10.94,4.48,17.36,13.66,18.46,25.29,2.38,25.17-18.55,39.63-42.22,39.85l-28.7.26.06-68.37ZM504.49,386.22c-17.12,7.77-36.86,7.34-56.29,5.23v-81.16s28.48.21,28.48.21c10.68.08,20.96,2.9,30.1,7.56,12.26,6.78,18.95,18.29,19.11,32.73.18,15.83-7.28,29.01-21.4,35.42Z"/>
  <path d="M283.89,199.62l-72.25,212.2,28.26.26,21.96-66.72,75.32.02,22.67,66.82,29.49-.04-72.49-212.29-32.95-.25ZM268.1,324.19l21.95-65.64,9.7-34.57c4.46,16.88,8.89,32.44,14.51,48.51l17.55,51.5-63.71.2Z"/>
  <path d="M709.74,352.26c-.91-33.97-25.88-49.46-55.39-60.74-23.52-8.99-46.17-20.68-40.46-47.35,6.6-30.8,52.67-29.9,79.67-15.28l7.49-21.94c-27.4-14.29-66.63-15.25-92.26,2.52-22.84,15.83-30.31,46.68-16.17,70.85,10.23,17.48,31.29,27.07,49.96,34.14,20.56,7.79,38.71,17.85,39.22,40.85.33,15-7.77,27.67-21.92,33.26-22.42,8.86-50.93,2.54-71.96-9.76l-6.9,23.19c27.88,14.82,59.85,17.71,88.69,7.83,25.4-8.7,40.75-31.07,40.04-57.57Z"/>
</svg>