<?xml version="1.0" encoding="UTF-8"?>
<svg id="Layer_1" xmlns="http://www.w3.org/2000/svg" version="1.1" viewBox="0 0 476.4 560.64">
  <!-- Generator: Adobe Illustrator 30.3.0, SVG Export Plug-In . SVG Version: 2.1.3 Build 182)  -->
  <path d="M149.98,321.47c-8.92-2.68-18.51-3.97-27.7-.84-3.89,1.33-8.31,1.85-11.48,4.57l-6.96,5.97-8.96,13.05c-2.18,3.17-3.28,6.74-5.62,9.38-.92.25-1.13-.23-.63-1.45l11.2-18.93c8.54-11.15,22.21-16.41,36.1-15.97,5.34.17,10.4.87,14.04,4.21Z" fill="#920e0e"/>
  <g>
    <g>
      <path d="M149.98,321.47l76.66,23.08c3.29.99,2.65,2.88,3.76,5.53l39.73,94.62-24.12-7.5c-30.99-9.08-61.9-18.27-92.74-27.57l-1.12.38-76.35,131.58c-17.92,24.92-53.39,24.77-69.7-1.3-9.87-15.3-6.8-32.97,2.24-48.34l16.75-28.5,36.04-61.82c8.86-16.56,18.24-32.57,28.14-48.02,9.72-25.48,32.38-43.82,60.71-32.13Z" fill="#fe0100"/>
      <path d="M455.7,273.4c-.29,2.69-1.44,5.3-2.76,8.21l-62.41,137.12c-3.5,7.7-6.48,15.23-13.31,20.46l-19.63-45.56c-7.43-18.94-15.29-37.68-23.6-56.24l-12.98-30.14,1.99-5.73,30.99-68.06c31.9-59.05,119.3-24.25,101.73,39.95Z" fill="#fe0100"/>
      <path d="M310.98,347.88l.74-.12c23.7,55.5,47.18,110.9,70.45,166.22,3.41,6.84,3.36,17.91-1.55,23.93l-4.54,5.55c-11.14,10.82-34.01,7.27-40.18-7.27l-65.81-154.94c-5.64-13.13-11.09-26.34-16.35-39.64-7.31-25.81,26.19-44.19,44-23.33,2.61,3.06,13.71,25.68,13.71,28.71,0,.3-.21.6-.47.89Z" fill="#fe0100"/>
      <path d="M246.02,437.19c-2.8.49-5.39-.34-8.59-1.32l-84.34-25.87-51.79,89.61-27.04,45.87c-9.56,11.26-22.72,16.08-37.38,15.01-11.24-.82-20.81-6.41-28.15-14.95-1.46-1.7-3.27-3.05-2.62-5.27,4.64,5.39,9.33,11.52,16.35,14.45,7.81,3.27,15.82,5.48,23.84,4.19,9.58-1.53,17.17-4.75,23.67-11.55,2.11-2.21,3.82-3.58,5.61-6.67l76.09-131.46c6.61-.52,11.54,2.15,17.38,3.96l76.98,23.98Z" fill="#90100e"/>
      <path d="M382.17,513.98l-4.67-9.36-66.52-156.74c-.68-1.83.03-2.18,1.3-.67l53.09,124.71,13.95,33.17c1.18,2.81,3.41,5.23,2.86,8.89Z" fill="#a20f0f"/>
      <path d="M312.27,347.2l-1.3.67-6.02-14.31c-4.06-9.65-8.78-19.22-19.71-22.59-12.56-3.87-27.48,4.46-30.83,17.56-1,3.92-1.43,9.8.07,13.38l9.73,23.2,5.88,16.13c-3.54-3.11-4.4-8.12-6.24-12.75l-11.58-29.02c-2.05-9.89,2.38-19.35,9.25-25.04,7.64-6.33,17.7-7.41,27.44-3.84,7.65,2.8,12.59,9.83,15.54,17.27l4.83,12.18c1.04,2.63,2.56,4.79,2.95,7.16Z" fill="#94100f"/>
      <path d="M455.7,273.4l1.17-10.9c3.19-29.8-19.32-56.15-48.76-58.26-20.79-1.48-39.59,7.12-50.65,24.69-1.14,1.8-1.5,3.67-3.48,4.52,1.67-8.04,8.06-14.04,14.84-19.43,17.29-13.74,41.84-15.6,61.25-4.82,21.57,11.98,32.7,36.13,27.87,60-.42,2.06-.47,3.43-2.24,4.2Z" fill="#830e0d"/>
      <path d="M333.97,337.38c-1.85-.53-2-2.6-2.7-4.24l-4.52-10.66-7.04-15.25,30.51-67.56c1.1-2.43,1.55-5.27,3.75-6.22l-1.09,4.79-7.43,15.57-10.14,23c-2.29,5.19-4.58,9.9-7.03,15.04l-4.45,9.35c-1.96,4.12-2.18,6.44-.27,10.67l9.3,20.59c.86,1.91,1.34,3.17,1.12,4.93Z" fill="#8d0e0e"/>
      <path d="M357.57,393.62l-21.78-50.05c-.95-2.18-1.99-4.23-1.82-6.19,1.41.4,1.97,1.79,2.61,3.35l8.19,19.85,8.25,19.79c1.86,4.46,4.32,8.6,4.55,13.25Z" fill="#940e0f"/>
      <path d="M89.27,353.6l-21.69,38.23c-2.08,3.67-4.62,6.66-6.45,9.79.57-3.44,2.39-6.49,4.31-9.77l23.2-39.7c.26.5.19,1.06.63,1.45Z" fill="#910e0f"/>
    </g>
    <g>
      <path d="M318.36,173.35c-18.86,71.8-90.42,119.12-163.73,103.69-18.29-3.85-33.24-10.86-49.17-19.05-.53-.35-1.06-.69-1.59-1.05-14.77-12.13-28.53-24.37-39.32-41.15-31.94-49.72-28.59-112.04,5.21-159.75C109.77,2.82,181.65-14.98,241.86,13.43c60.2,28.41,92.16,95.21,76.51,159.91Z" fill="#fe0100"/>
      <path d="M105.46,257.99c2.48-1.13,3.71.35,5.51,1.43,18.66,11.26,39.28,17.06,60.92,19.29,6.83.71,12.19.37,19.13-.09,35.65-2.36,68.87-17.97,92.97-44.18,15.41-16.75,26.54-35.84,32.18-57.89.39-1.54.7-2.65,2.19-3.2-10.71,44.26-42.23,80.58-84.55,97.4-42.32,16.83-90.17,12.07-128.35-12.76Z" fill="#8d0f0e"/>
      <path d="M103.88,256.94c-32.02-21.45-53.82-55.12-60.27-93.12-6.45-38,3.01-76.98,26.17-107.79.28,2.35-1.33,3.65-2.61,5.51-13.87,20.15-21.73,43.7-23.73,68.36-3.07,37.84,11.52,79.74,38.68,106.33,5.95,5.83,11.31,12.09,18.64,16.26,1.75,1,3.07,2.19,3.13,4.44Z" fill="#920f0d"/>
      <path d="M358.61,137.24c-.61-1.84-.33-2.52.84-2.04l2.88.93c43.14,60.54,131.87,11.76,106.12-56.57l1.57-1.87c1.32,1.83,2.82,3.14,3.63,6.22,1.56,5.91,2.41,11.18,2.56,17.57l.19,7.91c.14,5.79-1.82,10.28-3.65,15.65-7.6,22.23-26.5,37.43-49.59,41.5-15.71,2.77-30.58-.98-44.25-9.11-6.32-3.76-11.21-8.42-15.77-14.32l-4.53-5.86Z" fill="#930f0e"/>
      <path d="M470.01,77.69l-3.13-1.32c-40.95-70.13-141.42-16.88-106.83,55.68l-.6,3.14-.84,2.04c-13.23-23.29-12.35-53.45,5.03-73.98,12.86-15.2,30.07-23.28,49.81-23.34l12.56,1.54c16.76,2.05,39.25,18.65,44.01,36.25Z" fill="#8e0f0d"/>
      <path d="M470.01,77.69l3.95,14.6c.8,7.47,1.78,14.28.45,21.41-4.08,21.83-19.29,40.02-38.12,47.28-22.41,8.64-46.42,4.94-63.41-10.21-5.38-4.8-10.27-9.8-13.44-15.57-4.02-7.34-7.3-15.94-8.27-24.76-3.12-28.44,13.64-55.03,39.8-64.89,16.21-6.11,31.78-5.39,47.48,1.4,14.26,6.16,23.8,17.59,31.55,30.75Z" fill="#fe0100"/>
    </g>
  </g>
</svg>