<?xml version="1.0" encoding="UTF-8"?>
<svg id="Layer_1" xmlns="http://www.w3.org/2000/svg" version="1.1" viewBox="0 0 2677.15 1759.35">
  <!-- Generator: Adobe Illustrator 30.3.0, SVG Export Plug-In . SVG Version: 2.1.3 Build 182)  -->
  <path d="M2311.12,210.26V.05s-431.99-.02-431.99-.02l-.52,210.24H799.35s-.58-210.27-.58-210.27l-432.89.03.05,210.2-365.92.06.18,1549.06,1371.16-.05,1305.64-.17.17-1548.87h-366.03ZM180.69,1578.66l.02-1187.92,2316.28-.02v1187.7s-2316.3.24-2316.3.24Z"/>
  <polygon points="2311.13 879.51 2131.13 879.56 2131.18 699.52 2010.92 699.5 2011.02 879.59 1831.01 879.55 1831 999.69 2011.01 999.63 2010.95 1180.02 2131.2 1179.73 2131.14 999.63 2311.15 999.66 2311.13 879.51"/>
  <polygon points="365.89 879.53 365.87 999.69 847.31 999.63 846.61 879.57 365.89 879.53"/>
</svg>