<?xml version="1.0" encoding="UTF-8"?>
<svg id="Layer_1" xmlns="http://www.w3.org/2000/svg" version="1.1" viewBox="0 0 309.05 218.02">
  <!-- Generator: Adobe Illustrator 30.3.0, SVG Export Plug-In . SVG Version: 2.1.3 Build 182)  -->
  <path d="M257.6,0l-13.41,15.19c14.91,13.49,26.32,28.46,34.53,46.15,22.25,49.69,6.98,106.17-34.15,141.4l12.84,15.28c35.72-29.82,54.99-74.68,51.15-121.63-3.02-36.97-23.2-71.4-50.96-96.39Z" fill="#ef433b"/>
  <path d="M62.44,201.4c-1.01-1.54-2.9-3.41-4.68-5.1-26.13-24.87-39.28-59.56-37.29-95.84,1.14-20.71,8.47-39.37,19.63-56.62,6.35-9.82,13.85-18.1,21.76-26.18,2.94-4.71-3.17-4.43-3.31-9.2L51.24.26C31.87,17.5,16.77,38.85,7.81,63.52c-19.76,54.4-.9,117.44,43.77,154.46l7.28-8.47c-.31-3.99,3.51-5.08,3.58-8.1Z" fill="#ef433b"/>
  <path d="M61.85,17.66c.52-.53,2.02-.53,2.43-1.15,1.56-2.32-1.7-5.14-5.74-8.05,4.61,4.15,5.71,7.21,3.31,9.2Z" fill="#aa463e"/>
  <path d="M61.85,17.66c2.4-1.99,1.3-5.05-3.31-9.2.14,4.77,6.26,4.49,3.31,9.2Z" fill="#aa463e"/>
  <path d="M62.44,201.4l.84.88c-1.61,2.31-3.08,4.72-4.42,7.22l5.42-6.45c.35-.73-1.37-1.37-1.84-1.65Z" fill="#b14842"/>
  <path d="M62.44,201.4c-.07,3.02-3.89,4.11-3.58,8.1,1.34-2.51,2.81-4.91,4.42-7.22l-.84-.88Z" fill="#b14842"/>
  <path d="M154.04,3.99c-57.99,0-105.01,47.01-105.01,105.01s47.01,105.01,105.01,105.01,105.01-47.01,105.01-105.01S212.03,3.99,154.04,3.99ZM154.03,195.46c-47.75,0-86.46-38.71-86.46-86.46S106.28,22.54,154.03,22.54s86.46,38.71,86.46,86.46-38.71,86.46-86.46,86.46Z" fill="#ef433c"/>
  <path d="M153.64,131.19c8.16,1.5,16.6-4.34,16.6-13.44v-57.78c0-8.9-7.48-13.48-15.56-13.78-8.39-.31-16.58,4.5-16.6,13.85l-.13,58.09c-.02,8.26,8.01,14.14,15.7,13.07Z" fill="#ef433b"/>
  <path d="M145.37,144.28c-8.55,5.29-10.44,16.49-4.66,24.6,5.54,7.78,16.96,8.85,24.28,2.46,7.44-6.5,8.11-17.76.27-24.94-5.92-5.42-13.34-6.17-19.89-2.12Z" fill="#ee433b"/>
</svg>