<?xml version="1.0" encoding="UTF-8"?>
<svg id="Layer_1" xmlns="http://www.w3.org/2000/svg" version="1.1" viewBox="0 0 610.66 579.47">
  <!-- Generator: Adobe Illustrator 30.3.0, SVG Export Plug-In . SVG Version: 2.1.3 Build 182)  -->
  <path d="M330.51,202.58l-.09,66.16,87.84.23c9.82.03,16.74,8.56,16.92,17.48s-6.5,17.98-16.34,18.02l-88.39.38.02,48.89c23.14,12.08,36.46,36.94,33.46,62.7-3.46,29.68-27.33,52.38-56.01,55.14-29.95,2.89-57.17-15.56-65.97-43.66-9.05-28.9,4-60.1,31.17-74.27V25.89C275.18,10.93,286.9-.16,301.48.01c14.37-.47,27.25,10.68,28.59,25.79l.47,38.59,89.62.05c9.46,2.17,15.53,9.76,14.98,18.94-.36,8.72-7.5,16.05-16.85,16.87h-87.84s0,66.29,0,66.29l86.47-.04c10,.18,17.65,7.5,18.23,17.06.53,8.73-6.3,18.64-16.29,18.68l-88.36.34Z" fill="#fe0101"/>
  <path d="M490.58,548.1l-12.69,11.86c-26.67,26.15-68.34,25.99-94.89-.32l-13.49-12.87c-10.6-10.11-29.91-10.1-40.81.25l-9.61,9.12c-5.96,5.66-11.9,10.6-19.34,14.54-21.35,11.33-47.27,10.07-67.36-3.51-8.1-5.48-14.78-11.89-21.45-18.87-6.24-6.53-13.76-10.45-22.92-10.39-7.42.05-14.33,1.91-19.86,6.98l-16.42,15.08c-25.24,23.18-63.12,22.7-88.79.03l-13.87-13.3c-4.39-4.2-8.92-7.13-14.51-9.37-4.95-1.99-7.5-7.55-8.29-12.42l.12-12.66c.04-4.59-.69-9.09,1.47-13.35,3.13-6.18,9.69-10.55,16.86-8.85,10.69,2.53,19.88,8.44,27.73,15.94l15.03,14.35c9.78,9.34,29.23,10,40.46-.64l10.74-10.17c11.36-10.76,24.65-19.2,40.66-20.28l8.56-.58,7.33.49c13.61.9,26.01,6.7,35.96,15.74l7.57,6.87,6.59,6.32c6.28,6.02,12.94,10.37,22.03,10.48,13.82.17,17.69-3.64,26.69-11.88l10.85-9.94c24.23-22.19,62.47-22.47,88.29-.36l14.38,13.7c6.13,5.84,12.5,10.32,21.44,9.73l8.76-.58c6.75-.45,11.73-5.48,16.53-9.95l11.52-10.72c25.47-23.7,64.15-23.06,90.19,0l15.74,14.93c4.59,4.35,8.37,8.13,8.36,14.8l-.02,18.27c0,5.74-2.96,10.65-7.25,13.41-4.95,3.19-11.41,4.01-16.17.41l-10.26-7.75-17.41-16.29c-8.04-7.52-27.52-8.47-38.47,1.76Z" fill="#fe0101"/>
  <path d="M527.58,444.23c-39.97,13.09-76.1,10.63-115.99-1.51-7.3-2.22-13.82-8.8-12.25-16.78l4.37-22.13c1.87-9.45,12.64-13.47,21-9.65,14.94,6.82,31.04,9.65,47.37,8.13,8.64-.81,16.36-3.74,24.53-6.42,36.75-12.04,61.7-13.03,99.72-5.75,8.93,1.71,15.85,8.64,14.02,18.26l-3.29,17.32c-1.58,8.32-8.92,15.1-17.6,13.23-11.69-2.52-23.19-4.55-35.09-2.39l-26.81,7.68Z" fill="#fe0101"/>
  <path d="M155.96,450.94c-25.1,3.2-49.26,1.14-72.62-6.86l-19.9-6.81c-10.54-3.61-21.45-5.16-32.55-3.99l-9.23.97c-8.16.86-16.53-3.23-17.96-11.44l-3.5-20.17c-1.27-7.3,3.58-14.31,10.94-16.4,10.79-3.07,22.14-2.76,33.38-3.99,2.7-.3,4.84.12,7.49.21,17.63.56,34.14,4.16,50.9,9.57l27.15,8.77c16.63,3.29,33.6.61,49.34-5.26,4.74-1.77,9.18-1.43,13.9,1.23,3.26,1.84,5.93,5.79,6.74,10.53l3.29,19.16c1.18,6.85-2.74,14.24-9.57,16.53-12.23,4.12-24.38,6.23-37.81,7.95Z" fill="#fe0101"/>
</svg>