<?xml version="1.0" encoding="UTF-8"?>
<svg id="Layer_1" xmlns="http://www.w3.org/2000/svg" version="1.1" viewBox="0 0 279.78 185.58">
  <!-- Generator: Adobe Illustrator 30.3.0, SVG Export Plug-In . SVG Version: 2.1.3 Build 182)  -->
  <path d="M261.3,57.91l-23.05.05c-3.84,0-7.45,2.88-7.47,6.94l-.05,14.79-9.98.09-.05-14.88c-.01-4.04-3.59-6.94-7.39-6.95l-15.04-.05-9.48-21.52c-.91-2.07-4.12-4.4-6.59-4.4l-37.46-.03.02-17.93,19.48-.03c4.35,0,7.48-3.57,7.16-7.48C171.13,3.23,168.11,0,164.06,0l-82.42.04c-4.28,0-7.15,3.98-6.96,7.42.17,3.06,2.99,6.46,6.66,6.48l24.4.11-.03,17.94-32.56-.07c-2.11,0-5.29,1.81-6.26,3.5l-7.34,12.74c-15.43-1.96-27.75,8.81-27.71,23.8l.04,14.31-17.97.04v-37.35c0-4.12-3.43-7.01-7.13-6.96-3,.04-6.75,2.98-6.75,7.07L0,134.89c0,4.1,3.76,6.85,6.78,6.92,3.48.08,7.11-2.79,7.11-6.79l.03-35.04,17.99.07-.07,32.96c-.03,12.53,8.92,22.78,21.47,24.03l24.49.13,28.52,28.34,105.9.06c4.76,0,8.49-2.48,8.5-7.64l.03-19.44,10.02-.05-.06,12.55c-.02,4.55,3.03,7.59,7.52,7.6l24.14.04c3.67,0,6.71-2.31,8.02-5.78,12.58-33.48,12.58-74.96-.26-108.42-1.58-4.13-4.35-6.54-8.82-6.53ZM119.67,13.97h11.19s0,18.01,0,18.01h-11.19s0-18.01,0-18.01ZM258.57,164.95l-13.9-.23v-12.79c-.02-4.17-3.16-7.42-7.38-7.41l-23.06.07c-4.2.01-7.45,3.22-7.45,7.32l.02,19.71-94.99.08-28.53-28.22-28.85-.21c-4.29-.03-8.62-3.97-8.61-8.54l.09-65.48c0-5.58,6.55-7.85,11.39-7.39,13.5,1.31,12.27-4.68,19.56-16.12l100.98-.02,9.74,21.95c.74,1.67,3.64,3.6,5.35,4.16l13.82-.24.12,15.43c.03,3.88,3.71,6.63,7.26,6.63l23.19-.02c4.35,0,7.31-3.21,7.33-7.66l.05-14.12,13.51.16c10.44,28.97,9.95,64.12.35,92.92Z"/>
</svg>