<?xml version="1.0" encoding="UTF-8"?>
<svg id="Layer_1" xmlns="http://www.w3.org/2000/svg" version="1.1" viewBox="0 0 142.33 154.54">
  <!-- Generator: Adobe Illustrator 30.3.0, SVG Export Plug-In . SVG Version: 2.1.3 Build 182)  -->
  <path d="M132.12,64.8c4.5-7.47,12.48-9.45,7.64-19.41-6.5-13.37-23.97-29.42-36.68-34.18-.93-.35-4.41,1.11-4.02,1.89l1.68,3.32c11.73,7.31,21.23,16.76,28.49,28.38,1.42,2.82,2.87,6.77.98,9.43-1.62,2.27-7.03,5.69-6.41,9.22l10.34,59.2c.59,3.36-.88,7.78-3,9.82-2.32,2.24-5.93,3.45-9.63,3.59-7.51.29-15.21-4.76-15.24-12.81l-.18-56.76c-.02-7.71-6.85-13.25-14.01-13.43V7.46C92.08,3.29,88.93,0,84.56,0H17.57c-3.49.01-7.48,2.71-7.48,6.65l-.03,133.87-8.57.6c-2.02,4.3-2.27,10.43,1.03,13.42h97.64c2.5-4.45,2.37-8.84.59-13.45l-8.68-.6V60.94c3.02.17,6,2.77,6.01,5.75l.21,56.86c.05,12.85,12.12,21.17,24.27,20.53,12.01-.63,21.62-10.35,19.46-22.65l-9.91-56.62ZM20.06,58.43V16.52s62.04-.02,62.04-.02v41.91s-62.04.02-62.04.02Z"/>
</svg>