<?xml version="1.0" encoding="UTF-8"?>
<svg id="Layer_1" xmlns="http://www.w3.org/2000/svg" version="1.1" viewBox="0 0 451.54 295.66">
  <!-- Generator: Adobe Illustrator 30.3.0, SVG Export Plug-In . SVG Version: 2.1.3 Build 182)  -->
  <path d="M403.01,248.96c-48.28,38.59-119.33,49.72-179.35,46.03-43.47-94.57-44.86-200.11-1.12-294.41,58.31-3.04,123.51,5.2,172.08,38.57,35.91,24.1,56.06,62.45,56.9,105.51.8,40.97-15.77,78.6-48.51,104.31ZM387.06,229.03c26.37-20.73,39.41-50.52,38.94-83.38-.49-34.38-15.86-64.91-44.39-84.46-39.91-28.27-93.86-35.9-142.15-35.8-32.26,79.39-30.91,166.08,1.25,244.92,49.92-.06,106.39-9.47,146.34-41.28Z"/>
  <g>
    <path d="M170.28,280.5l-160.52.03c-6.31,0-9.58-6.72-9.75-11.4-.19-5.06,3.14-12.34,9.74-12.35l160.15-.02c6.4,0,9.76,6.54,9.92,11.45.14,4.51-2.67,12.28-9.54,12.28Z"/>
    <path d="M165.74,37.23l-156.31.04c-6.41,0-9.53-7.29-9.42-12.06s3.23-11.61,9.59-11.61l155.51-.04c6.15,0,9.43,6.14,9.87,10.72s-2.22,12.95-9.24,12.95Z"/>
    <path d="M149.73,98.03l-140.29.03C3.12,98.06-.02,90.81,0,86.17s3.23-11.74,9.53-11.75l139.65-.04c6.21,0,9.43,6.24,9.81,10.85s-2.28,12.79-9.26,12.79Z"/>
    <path d="M148.78,195.99c7.15,0,10.3,6.95,10.25,12.14-.04,4.79-3.46,11.59-9.9,11.59l-139.55-.03c-6.34,0-9.47-6.97-9.57-11.59s3.03-12.05,9.41-12.05l139.36-.06Z"/>
    <path d="M133.65,158.81l-124.19.04c-6.27,0-9.45-7.1-9.46-11.72s3.14-11.88,9.42-11.89l123.84-.05c6.13,0,9.45,6.34,9.75,11.01s-2.4,12.61-9.35,12.61Z"/>
  </g>
</svg>