<?xml version="1.0" encoding="UTF-8"?>
<svg id="Layer_1" xmlns="http://www.w3.org/2000/svg" version="1.1" viewBox="0 0 118.97 52.97">
  <!-- Generator: Adobe Illustrator 30.3.0, SVG Export Plug-In . SVG Version: 2.1.3 Build 182)  -->
  <path d="M52.54,35.89c-6.05,9.85-17.95,14.77-21.44,13.08-9.43-4.55-8.51-44.86,1.15-45.15,6.28-.19,13.27,4.32,17.23,8.72,6.13,6.82,7.63,15.9,3.05,23.34ZM45.08,38.06c5.52-3.99,7.39-11.72,4.52-17.41-3.37-6.68-10.26-10.58-18.02-11.58-4.63,11.89-2.9,36.3,1.91,34.78,3.91-1.23,7.88-3.12,11.59-5.8Z"/>
  <path d="M85.18,49.29c-7.87-1.89-14.54-5.95-18.68-12.67s-4.09-15.29.78-21.88c4.17-5.65,10.65-9.59,17.85-11.2,1.82-.41,5.61,2.52,6.2,4.35,3.6,11.15,3.48,22.55,1.06,33.76-.85,3.94-2.76,6.57-7.2,7.64ZM85.91,44.22c6-6.94,4.31-24.97,1.24-35.45-6.87.97-13.26,4.25-16.98,9.75-4.87,7.2-2.23,16.16,4.93,20.68,3.09,1.95,7.09,3.69,10.8,5.02Z"/>
  <path d="M20.09,29.34l-18.31.03c-1.6-.77-1.67-5.32-.12-5.98l18.31.02.13,5.93Z"/>
  <path d="M115.79,29.28h-17.43s-.17-5.13-.17-5.13c8.35-.68,17.95-2.43,20.35,1.74.43.75-1.62,3.4-2.75,3.4Z"/>
  <path d="M100.07,8.69c-1.45.3-2.96-4.21-2.1-5.18L114.76.03c.99-.21,3.19.63,3.76,1.24s.32,3.51-.64,3.71l-17.81,3.7Z"/>
  <path d="M115.8,52.96l-17.77-3.7c-.45-1.31.54-4.6,1.68-5.25l16.13,3.32c1.36.28,3.2,1.53,3.13,2.53s-2.14,3.32-3.17,3.1Z"/>
  <path d="M18.82,8.8L.63,5.02C-.17,4.32-.08,1.01.89.61s3.25-.46,4.52-.2l14.43,2.99c1.24.41.28,5.29-1.02,5.4Z"/>
  <path d="M2.43,52.91c-1.6.3-3.38-4.76-1.82-5.13l18.16-3.8c.82.48,2.16,2.99,1.95,3.9s-2.22,1.98-3.36,2.2l-14.93,2.83Z"/>
</svg>