<?xml version="1.0" encoding="UTF-8"?>
<svg id="Layer_1" xmlns="http://www.w3.org/2000/svg" version="1.1" viewBox="0 0 503.3 193.43">
  <!-- Generator: Adobe Illustrator 30.3.0, SVG Export Plug-In . SVG Version: 2.1.3 Build 182)  -->
  <path d="M482.37,115.39c-4.7,6.76-8.65,12.49-13.76,18.21-9.91,11.1-11.56,25.16.22,34.94,6.69,5.55,16.46,6.47,23.9,1.81,7.1-4.44,11.97-12.56,10.22-21.93-2.4-12.82-14.82-19.48-20.58-33.03Z" fill="#fd0000"/>
  <path d="M487.03,67.59l-27.4-27.36-179.88,44.22-28.64-28.82-59.11-.2.03-20.56,21.21-.15V6.63s-70.39.05-70.39.05l.21,27.91,20.29.32.23,20.57h-52.12s-.03-27.83-.03-27.83L21.15,0,0,68.52l82.66,25.51.04,99.4,232.75-.03,55.58-63.34,43.6-49.44,36.39-8.95,16.27,15.59,19.73-19.68ZM51.7,54.51l-15.51-4.55c.37-5.39,2.08-9.54,3.73-14.38l42.6,13.05.65,15.37c-11.53-2.7-20.99-6.43-31.47-9.5ZM302.86,164.6H111.48s.04-80.84.04-80.84l127.18-.03,31.94,32.4,93.95-22.83-61.74,71.3Z" fill="#fd0101"/>
</svg>