<?xml version="1.0" encoding="UTF-8"?>
<svg id="Layer_1" xmlns="http://www.w3.org/2000/svg" version="1.1" viewBox="0 0 210.08 265.39">
  <!-- Generator: Adobe Illustrator 30.3.0, SVG Export Plug-In . SVG Version: 2.1.3 Build 182)  -->
  <path d="M166.52,178.82c.1-.56.15-1.27.13-2.14-.05.55-.15,1.35-.13,2.14Z" fill="#e5211a"/>
  <path d="M138.63,81.17l-63.72,68.12c-6.53,6.99-13.1,12.77-18.68,20.43-1.26,1.72,0,5.56,1.37,7.03,32.99-12.61,74.66-10.62,105.8,2.69.24-.04.47-.06.68-.05,1.34-.23,2.31-1.22,2.56-2.7.76-8.04,2.7-17.35.68-26l-14.9-63.95c-3.64-2.42-6.84-4.54-10.65-5.29-.7-.14-1.96.44-3.15-.27Z" fill="#e5211a"/>
  <path d="M141.12,80.3c.16.41.4.82.66,1.14-.22-.48-.45-.85-.66-1.14Z" fill="#e5211a"/>
  <path d="M41.25,164.55s0,0,.01,0c0,0,0,0,0,0,0,0-.01,0-.02,0Z" fill="#e5211a"/>
  <path d="M42.05,164.42l84.76-91.09c-3.09-1.55-7.49-2.96-9.95-5.96-2.08-2.55-1.02-7.61-1.02-10.82,14.77-11.2,17.14-36.43,5.17-49.3C115.48,1.29,108.78-.77,100.52.25c-6.01.74-12.19,5.43-16.03,11.94-7.99,13.57-4.4,36.1,9.21,44.19l-1.19,11.54-34.73,18.38-15.99,67.06c-.77,3.23-.05,7.14.25,11.05Z" fill="#e5211a"/>
  <path d="M49.87,193.96c.58.77.97,2.35-.54,2.65-1.1.22-2.31.62-2.69,1.3-.41.72-.19,1.92-.12,2.68,6.39,21.59,15.76,42.23,26.3,62.6l22.78,2.09c-8.38-19.27-16.78-37.33-24-57.83,20.72-8.77,44.93-8.84,66.77-.21-7,20.23-15.39,38.57-24.16,58.15l23.12-2.48c7.33-13.92,26.36-55.04,25.45-62.39l-.77-6.18c-35.53-16.39-76.28-16-112.12-.38Z" fill="#e5211a"/>
  <path d="M126.81,73.33l.42-.45c-.18.11-.33.26-.42.45Z" fill="#050403"/>
  <path d="M164.85,180.33c-.4-.35-.88-.65-1.45-.89.55.47,1.04.76,1.45.89Z" fill="#050403"/>
  <path d="M163.4,179.44c.24,0,.46-.02.68-.05-.22,0-.44,0-.68.05Z" fill="#050403"/>
  <path d="M163.07,194.41c-.31-.06-.68-.09-1.08-.07.37.09.74.1,1.08.07Z" fill="#050403"/>
  <path d="M47.41,196.36c-4.53,1.25-5.48-6.11-5.89-11.36-1.59-7.15-1.68-13.96-.26-20.43,0,0,0,0,0,0-6.56,8.82-14.24,15.78-21.45,23.63L0,209.74l7.33,8.71c11.71-9.28,24.37-16.53,38.14-22.1.12,1.88.68,3,1.04,4.23l-.39-3.39c.47-.28.9-.56,1.29-.84Z" fill="#e5211a"/>
  <path d="M41.27,164.55s0,0,0,0c0,0,0,0,0,0,0,0,0,0,0-.01Z" fill="#e5211a"/>
  <path d="M46.64,197.91c.39-.68,1.59-1.08,2.69-1.3,1.51-.3,1.12-1.88.54-2.65.11.54.14.99-.05,1.14-.9.67-1.7,1.07-2.41,1.27-.39.28-.82.56-1.29.84l.39,3.39c-.07-.76-.29-1.95.12-2.68Z" fill="#e5211a"/>
  <path d="M41.27,164.57s0,0,0,0c-1.42,6.47-1.33,13.28.26,20.43.41,5.26,1.36,12.62,5.89,11.36,1.14-.8,1.96-1.6,2.46-2.4l-4.4,1.55c-2.57-10.22-2.7-20.5-4.2-30.94Z" fill="#e5211a"/>
  <path d="M41.27,164.55s0,0,0,.01c0,0,0,0,0,0,0,0,0-.01,0-.02Z" fill="#e5211a"/>
  <path d="M47.41,196.36c.71-.2,1.51-.6,2.41-1.27.19-.14.15-.59.05-1.14-.5.8-1.32,1.6-2.46,2.4Z" fill="#e5211a"/>
  <path d="M139.66,78.14c.21.51.29,1.01.22,1.47.4-.12.81.11,1.24.69-.08-.22-.15-.44-.18-.65-.15-1.2.82-1.69,1.67-2.61l31.98-34.38-10.4-9.45-36.97,39.67c2.43-1.48,12.02,4.28,12.43,5.27Z" fill="#e42119"/>
  <path d="M139.88,79.61c-.09.66-.48,1.22-1.25,1.56,1.18.71,2.45.13,3.15.27-.26-.33-.5-.73-.66-1.14-.42-.58-.84-.81-1.24-.69Z" fill="#e42119"/>
  <path d="M138.63,81.17c.4-.93.82-1.43,1.25-1.56.06-.46-.01-.96-.22-1.47-.41-.99-10-6.74-12.43-5.27l-.42.45,9.28,4.65c1.71.86,2.89,1.86,2.55,3.2Z" fill="#e42119"/>
  <path d="M139.88,79.61c-.43.13-.84.63-1.25,1.56.77-.34,1.16-.9,1.25-1.56Z" fill="#e42119"/>
  <path d="M166.52,178.82c-.12.63-.31,1.07-.59,1.32,2.61,2.48,2.17,10.25.9,12.62-.75,1.39-1.93,2.72-2.96,3.09-.14.14-.32.28-.56.42l-.55,4.25c.99-1.24.97-2.94,1.83-4.93,13.88,6.46,25.37,14.64,36.23,25.15l9.27-10.7c-12.94-11.72-26.89-21-42.37-28.72-.91-.45-1.16-1.47-1.2-2.5Z" fill="#e5211a"/>
  <path d="M164.09,179.38c.74.01,1.35.29,1.84.76.28-.25.47-.69.59-1.32-.03-.79.08-1.59.13-2.14-.24,1.49-1.22,2.48-2.56,2.7Z" fill="#e5211a"/>
  <path d="M163.87,195.85c-.84.3-1.58-.03-1.88-1.51l.77,6.18.55-4.25c.24-.14.42-.28.56-.42Z" fill="#e5211a"/>
  <path d="M164.85,180.33c.93.83,1.36,2.02,1.1,3.99l-1.07,8.04c-.16,1.2-.71,1.85-1.49,2.03-.1.02-.22.02-.32.03,1.01.2,1.46.78.8,1.44,1.03-.37,2.22-1.7,2.96-3.09,1.27-2.37,1.71-10.14-.9-12.62-.28.25-.64.31-1.08.18Z" fill="#e5211a"/>
  <path d="M163.4,179.44c.57.24,1.05.54,1.45.89.44.14.8.08,1.08-.18-.5-.47-1.11-.75-1.84-.76-.22.04-.45.06-.68.05Z" fill="#e5211a"/>
  <path d="M163.07,194.41c-.34.03-.71.02-1.08-.07.3,1.48,1.04,1.81,1.88,1.51.66-.66.22-1.24-.8-1.44Z" fill="#e5211a"/>
</svg>