<?xml version="1.0" encoding="UTF-8"?>
<svg id="Layer_1" xmlns="http://www.w3.org/2000/svg" version="1.1" viewBox="0 0 92.96 96.1">
  <!-- Generator: Adobe Illustrator 30.3.0, SVG Export Plug-In . SVG Version: 2.1.3 Build 182)  -->
  <path d="M74.78,43.75l-38.61.04c-1.33,0-2.85-.34-5.31-.75l.09,8.78c-2.29,1.03-7.05,1.35-10.75,1.15l.78-9.36c-4.97-5.07-3.4-15.76-.31-23.03-2.54,1.09-7.34-.12-6.28-3.37.66-2.04,5.82-2.18,8.59-1.03l5.4-8.62C30.96,3.41,35.03,0,40.27,0h25.29c2.82,0,8.39,1.87,9.77,4.1l7.02,11.35,6.14-.09c.91-.01,2.68.94,3.23,1.62s-.45,3.48-1.27,3.47l-5.89-.07c5.59,6.92,5.44,15.98.9,23.22v8.9s-10.8.29-10.8.29c.45-3.85.51-5.72.1-9.05ZM76.24,15.46c-2.02-3.59-4.21-6.98-6.67-10.29l-26.3-.27c-4.39-.05-8.33.86-10.49,4.88l-3,5.57,46.45.1Z"/>
  <path d="M63.93,87.35c.25,2.73,2.88,5.86,5.07,8.74l-10.97-.46c-2.16-.09-4.52-4.71-4.72-6.83-1.6-17.29,44.73-17.54,22.76-30.88,3.36-1.09,8.9-1.51,12.99-.18,2.07.67,4.32,5.48,3.82,7.55-1.04,4.34-5.31,7.59-9.44,9.49l-15.83,7.32c-1.37.63-3.81,3.9-3.69,5.24Z"/>
  <path d="M14.19,95.75c-2.94.04-7.53.05-10.79-.57-2.15-.41-3.52-5.95-3.4-8.13.45-7.74,11.3-12.15,20.26-15.83,3.01-1.24,7.09-3.01,8.6-6.26.12-2.85-4.15-6-6.58-7.22,3.89-.74,9.17-1.19,13.06-.21,2.13.54,4.29,5.29,4.08,7.37-.24,2.27-2.72,6.36-5.15,7.53l-19.05,9.16c-1.86.9-4.76,3.72-4.74,5.57.03,2.57,1.67,5.11,3.71,8.59Z"/>
</svg>