<?xml version="1.0" encoding="UTF-8"?>
<svg id="Layer_1" xmlns="http://www.w3.org/2000/svg" version="1.1" viewBox="0 0 1112.42 918.47">
  <!-- Generator: Adobe Illustrator 30.3.0, SVG Export Plug-In . SVG Version: 2.1.3 Build 182)  -->
  <path d="M926.28,918.38l-101.2.09c-.64-1.69-.53-3.43.1-5.31l.02-66.65h-71.68l-.03,71.94h-91.49l.04-71.97-71.5-.04-.17,26.84.34,45.03-91.46.12.13-18.24.08-43.7c0-3.55.54-6.5-.56-10.07l-71.01.09c-.62,7.69,1.09,14.15-.12,25.22-.98,8.93.05,17.87.11,26.82l.14,19.87-91.2.05.04-71.88-71.48-.22.02,72.07-79.27-.03-.06-75.79c1.71-3.67.29-7.49-3.92-8.11l-17-14.1-11.61-10.5-20.62-20.7C54.75,705.65,6.36,595.94.5,481.14c-.93-18.28-.32-35.55-.15-53.69l1.25-12.57,2.09-21.7,2.06-14.19c2.54-17.56,6.15-33.98,10.7-51.26,16.43-62.34,43.85-118.06,82.28-169.8,13.14-17.69,26.3-34.22,38.45-52.55,8.68-13.1,16.01-26.37,20.21-41.76,2.24-8.22,2.57-16.82,6.07-25.09,4.7-11.11,12.24-20.81,22.32-27.67,22.88-15.58,53.46-14.22,74.59,2.96,19.16,15.58,26.27,38.52,22.08,62.41-9.14,52.03-33.28,88.94-63.8,130.4l-30.55,41.5c-38.3,56.19-59.65,121.46-63.29,189.3l-.05,29.51c1.58,39.22,9.23,76.98,23.01,113.77l4.37,11.67,11.13,24.07c23.06,46.16,54.94,86.06,94.58,119.11,3.68,3.07,7.33,7.44,9.53,11.47l6.17,11.3h566.45c3.11-9.37,8.27-17.21,15.85-23.6,71.54-60.25,117.17-142.77,129.72-235.73l2.19-26.11.22-32.64-1.56-20.57c-6.63-68.1-32.14-132-72.74-186.81l-4.3-5.8-20.54-27.45-20.09-29.14c-20.13-29.19-39.79-75.84-39.66-111.27l1.27-9.76c5.15-25.3,25.22-43.93,50.67-48.48,33.27-5.94,65.56,16.17,71.77,49.57,1.76,9.5,3.12,18.26,7.21,27.11,6.97,15.09,15.64,28.88,25.56,42.25l21.42,28.85c51.35,65.84,85.84,142.93,99.28,225.47l3.8,28.19,1.94,23.37.41,48.7c-2.5,73.67-22.93,145.27-57.69,210.18-17.15,32.04-37.51,61.48-60.93,89.05l-10.05,11.19c-14.41,16.06-30.11,30.32-46.31,44.62l-11.08,7.06-.05,81.81h-.03Z" fill="#020202"/>
  <g>
    <path d="M556.2,537.64c-7.16-.28-12.99.02-20.24-2.41-25.38-8.52-46.5-31.6-46.51-60.51l-.16-311.76c-.01-19.84,9.41-37.39,24.05-49.48,27.66-22.85,69.76-20.18,93.37,7.3,8.4,9.78,16.28,23.16,16.28,37.05l.03,319.97c0,17.05-10.44,31.99-21.23,42.7-5.24,5.2-10.43,8.1-16.43,11.19-9.3,4.78-18.81,6.37-29.17,5.97v-.02Z" fill="#020202"/>
    <circle cx="556.3" cy="636.02" r="66.96" fill="#020202"/>
  </g>
</svg>