<svg xmlns="http://www.w3.org/2000/svg" viewBox="0 0 512 512" width="512" height="512">
  <defs>
    <linearGradient id="bg" x1="0" y1="0" x2="1" y2="1">
      <stop offset="0" stop-color="#003E7E"></stop>
      <stop offset="1" stop-color="#0066B3"></stop>
    </linearGradient>
    <clipPath id="clip"><rect width="512" height="512" rx="96"></rect></clipPath>
  </defs>
  <g clip-path="url(#clip)">
    <rect width="512" height="512" fill="url(#bg)"></rect>
    <g opacity="0.08" stroke="#ffffff" stroke-width="2" fill="none">
      <polygon points="-4.00,-104.00 -32.00,-55.50 -88.00,-55.50 -116.00,-104.00 -88.00,-152.50 -32.00,-152.50"></polygon>
      <polygon points="116.00,-104.00 88.00,-55.50 32.00,-55.50 4.00,-104.00 32.00,-152.50 88.00,-152.50"></polygon>
      <polygon points="236.00,-104.00 208.00,-55.50 152.00,-55.50 124.00,-104.00 152.00,-152.50 208.00,-152.50"></polygon>
      <polygon points="356.00,-104.00 328.00,-55.50 272.00,-55.50 244.00,-104.00 272.00,-152.50 328.00,-152.50"></polygon>
      <polygon points="-64.00,0.00 -92.00,48.50 -148.00,48.50 -176.00,0.00 -148.00,-48.50 -92.00,-48.50"></polygon>
      <polygon points="56.00,0.00 28.00,48.50 -28.00,48.50 -56.00,0.00 -28.00,-48.50 28.00,-48.50"></polygon>
      <polygon points="176.00,0.00 148.00,48.50 92.00,48.50 64.00,0.00 92.00,-48.50 148.00,-48.50"></polygon>
      <polygon points="296.00,0.00 268.00,48.50 212.00,48.50 184.00,0.00 212.00,-48.50 268.00,-48.50"></polygon>
      <polygon points="-4.00,104.00 -32.00,152.50 -88.00,152.50 -116.00,104.00 -88.00,55.50 -32.00,55.50"></polygon>
      <polygon points="116.00,104.00 88.00,152.50 32.00,152.50 4.00,104.00 32.00,55.50 88.00,55.50"></polygon>
      <polygon points="236.00,104.00 208.00,152.50 152.00,152.50 124.00,104.00 152.00,55.50 208.00,55.50"></polygon>
      <polygon points="356.00,104.00 328.00,152.50 272.00,152.50 244.00,104.00 272.00,55.50 328.00,55.50"></polygon>
      <polygon points="-64.00,208.00 -92.00,256.50 -148.00,256.50 -176.00,208.00 -148.00,159.50 -92.00,159.50"></polygon>
      <polygon points="56.00,208.00 28.00,256.50 -28.00,256.50 -56.00,208.00 -28.00,159.50 28.00,159.50"></polygon>
      <polygon points="176.00,208.00 148.00,256.50 92.00,256.50 64.00,208.00 92.00,159.50 148.00,159.50"></polygon>
      <polygon points="296.00,208.00 268.00,256.50 212.00,256.50 184.00,208.00 212.00,159.50 268.00,159.50"></polygon>
    </g>
    <polygon points="256.00,36.00 446.53,146.00 446.53,366.00 256.00,476.00 65.47,366.00 65.47,146.00" fill="none" stroke="#0094D9" stroke-width="20" stroke-linejoin="round"></polygon>
    <polygon points="256.00,62.00 424.01,159.00 424.01,353.00 256.00,450.00 87.99,353.00 87.99,159.00" fill="#001E3F" opacity="0.35"></polygon>
    <path d="M 100 256 L 180 256 L 210 256 L 230 200 L 256 320 L 282 180 L 305 256 L 412 256" fill="none" stroke="#F5B700" stroke-width="18" stroke-linecap="round" stroke-linejoin="round"></path>
    <circle cx="100" cy="256" r="10" fill="#F5B700"></circle>
    <circle cx="412" cy="256" r="10" fill="#F5B700"></circle>
  </g>
</svg>