<svg xmlns="http://www.w3.org/2000/svg" viewBox="0 0 64 64" fill="none" stroke="currentColor" stroke-width="2.5" stroke-linecap="round" stroke-linejoin="round">
  <!-- Outer rounded square -->
  <rect x="4" y="4" width="56" height="56" rx="12" fill="#003291" stroke="#003291"/>
  <!-- Letter B -->
  <path d="M16 18 L16 46 L26 46 C30 46 32 43 32 40 C32 37 30 34 26 34 L16 34 M16 34 L26 34 C30 34 32 31 32 28 C32 25 30 22 26 22 L16 22 L16 18 Z" stroke="#FFFFFF" stroke-width="3" fill="none"/>
  <!-- Letter K -->
  <path d="M40 18 L40 46 M40 32 L52 18 M40 32 L52 46" stroke="#FFFFFF" stroke-width="3" fill="none"/>
  <!-- Small CAN line decoration at bottom -->
  <path d="M14 52 L50 52" stroke="#D4A017" stroke-width="2" stroke-dasharray="3 3"/>
</svg>
